<svg width="212" height="50" viewBox="0 0 212 50" fill="none" xmlns="http://www.w3.org/2000/svg">
<path d="M161.943 22.5762C161.943 22.5762 158.014 22.5762 156.749 22.5762C155.484 22.5762 154.552 22.9106 153.553 24.0478C152.555 25.185 146.229 32.4762 146.229 32.4762V22.5762H139.038V47.9284C139.038 48.7311 139.704 49.4 140.503 49.4H146.229V37.2256C146.229 37.2256 151.622 45.654 152.555 47.1257C153.487 48.5973 154.419 49.3331 156.616 49.3331C158.747 49.3331 162.475 49.3331 162.475 49.3331L152.488 33.5465L161.943 22.5762ZM131.648 22.5762C131.648 22.5762 116.134 22.5762 115.668 22.5762V46.925C115.668 48.2628 117 49.3331 118.331 49.3331H131.581C132.38 49.3331 133.046 48.6642 133.046 47.8615V44.3831H123.858C123.258 44.3831 122.792 43.9148 122.792 43.3128V37.6938H130.982V32.8107H122.792V27.4593H133.046V24.0478C133.046 23.2451 132.447 22.5762 131.648 22.5762ZM182.05 22.5762C182.05 22.5762 166.537 22.5762 166.071 22.5762V46.925C166.071 48.2628 167.402 49.3331 168.734 49.3331H181.984C182.783 49.3331 183.449 48.6642 183.449 47.8615V44.3831H174.26C173.661 44.3831 173.195 43.9148 173.195 43.3128V37.6938H181.385V32.8107H173.195V27.4593H183.449V24.0478C183.515 23.2451 182.849 22.5762 182.05 22.5762ZM80.4459 22.5762H73.255V47.9284C73.255 48.7311 73.9208 49.4 74.7198 49.4H80.4459V22.5762ZM65.3317 22.5762C65.3317 22.5762 49.818 22.5762 49.352 22.5762V46.925C49.352 48.3297 50.6836 49.3331 52.0153 49.3331H65.2651C66.0641 49.3331 66.7299 48.6642 66.7299 47.8615V44.3831H57.6082C57.0089 44.3831 56.5429 43.9148 56.5429 43.3128V37.6938H64.7325V32.8107H56.5429V27.4593H66.7965V24.0478C66.7965 23.2451 66.1307 22.5762 65.3317 22.5762ZM42.1611 22.5762H34.9702V32.8107H28.7115V22.5762H20.3887V23.6465C20.3887 23.6465 21.5206 24.0478 21.5206 25.4525V49.4H28.7115V37.7607H34.9702V49.4H42.1611V22.5762ZM108.41 22.5762V47.9284C108.41 48.7311 107.745 49.4 106.946 49.4H102.551L92.8968 34.0817C92.8968 34.0817 93.0965 35.3526 93.0965 36.958C93.0965 38.5634 93.0965 49.4 93.0965 49.4H87.77V22.6431C87.77 22.6431 88.6355 22.6431 91.2322 22.6431C93.03 22.6431 94.295 23.3789 95.2272 24.8505C96.0262 26.1215 103.35 37.6938 103.35 37.6938C103.35 37.6938 103.084 36.8911 103.084 34.8175C103.084 32.6769 103.084 22.71 103.084 22.71H108.41V22.5762ZM211.347 22.5762V23.6465C211.347 23.6465 210.215 24.1147 210.215 25.4525V47.9284C210.215 48.7311 209.549 49.4 208.817 49.4H204.422L194.768 34.0817C194.768 34.0817 194.967 35.3526 194.967 36.958C194.967 38.5634 194.967 49.4 194.967 49.4H189.641V22.6431C189.641 22.6431 190.506 22.6431 193.103 22.6431C194.901 22.6431 196.166 23.3789 197.098 24.8505C197.897 26.1215 205.221 37.6938 205.221 37.6938C205.221 37.6938 204.955 36.8911 204.955 34.8175C204.955 32.6769 204.955 22.71 204.955 22.71H211.347V22.5762Z" fill="#00561F"/>
<path d="M7.00559 32.3425C6.67268 32.61 6.2066 32.2756 6.33977 31.8742C6.53952 31.2722 10.135 20.1012 10.135 20.1012L0.214197 12.8099C-0.185297 12.5423 0.0144502 12.0072 0.480526 12.0072C1.07977 12.0072 12.7317 12.0072 12.7317 12.0072C12.7317 12.0072 16.3271 0.836154 16.5269 0.301016C16.66 -0.100339 17.2593 -0.100339 17.3924 0.301016C17.5922 0.903047 21.1876 12.0072 21.1876 12.0072C21.1876 12.0072 32.8395 12.0072 33.4388 12.0072C33.9048 12.0072 34.038 12.5423 33.7051 12.8099L27.7793 17.1579H20.7881L18.5909 10.4687L16.3937 17.1579H9.46914L15.1286 21.3052L12.9314 27.9944C12.9314 27.9944 7.40509 32.0749 7.00559 32.3425Z" fill="#E30613"/>
</svg>
